<?xml version="1.0" encoding="UTF-8" standalone="no"?>
<!DOCTYPE svg PUBLIC "-//W3C//DTD SVG 1.1//EN" "http://www.w3.org/Graphics/SVG/1.1/DTD/svg11.dtd">
<!-- Created with Vectornator (http://vectornator.io/) -->
<svg height="100%" stroke-miterlimit="10" style="fill-rule:nonzero;clip-rule:evenodd;stroke-linecap:round;stroke-linejoin:round;" version="1.1" viewBox="0 0 512 512" width="100%" xml:space="preserve" xmlns="http://www.w3.org/2000/svg" xmlns:xlink="http://www.w3.org/1999/xlink">
<defs/>
<g id="Ebene-1">
<path d="M104 64L408 64C430.091 64 448 81.9086 448 104L448 408C448 430.091 430.091 448 408 448L104 448C81.9086 448 64 430.091 64 408L64 104C64 81.9086 81.9086 64 104 64Z" fill="#ca92ec" fill-rule="nonzero" opacity="1" stroke="none"/>
<path d="M192 152C192 138.75 202.75 128 216 128L240 128L240 168C240 172.4 243.6 176 248 176L264 176C268.4 176 272 172.4 272 168L272 128L296 128C309.25 128 320 138.75 320 152L320 216C320 229.25 309.25 240 296 240L216 240C202.75 240 192 229.25 192 216L192 152ZM136 272L160 272L160 312C160 316.4 163.6 320 168 320L184 320C188.4 320 192 316.4 192 312L192 272L216 272C229.25 272 240 282.75 240 296L240 360C240 373.25 229.25 384 216 384L136 384C122.75 384 112 373.25 112 360L112 296C112 282.75 122.75 272 136 272ZM296 272L320 272L320 312C320 316.4 323.6 320 328 320L344 320C348.4 320 352 316.4 352 312L352 272L376 272C389.25 272 400 282.75 400 296L400 360C400 373.25 389.25 384 376 384L296 384C282.75 384 272 373.25 272 360L272 296C272 282.75 282.75 272 296 272Z" fill="#000000" fill-rule="nonzero" opacity="1" stroke="none"/>
</g>
</svg>
