<?xml version="1.0" encoding="UTF-8" standalone="no"?>
<!DOCTYPE svg PUBLIC "-//W3C//DTD SVG 1.1//EN" "http://www.w3.org/Graphics/SVG/1.1/DTD/svg11.dtd">
<!-- Created with Vectornator (http://vectornator.io/) -->
<svg height="100%" stroke-miterlimit="10" style="fill-rule:nonzero;clip-rule:evenodd;stroke-linecap:round;stroke-linejoin:round;" version="1.1" viewBox="0 0 512 512" width="100%" xml:space="preserve" xmlns="http://www.w3.org/2000/svg" xmlns:xlink="http://www.w3.org/1999/xlink">
<defs/>
<g id="Ebene-1">
<path d="M104 64L408 64C430.091 64 448 81.9086 448 104L448 408C448 430.091 430.091 448 408 448L104 448C81.9086 448 64 430.091 64 408L64 104C64 81.9086 81.9086 64 104 64Z" fill="#48bf91" fill-rule="nonzero" opacity="1" stroke="none"/>
<path d="M144 160C126.35 160 112 174.35 112 192L112 195.7C112 199.1 114.2 202 117.05 203.85C123.65 208.15 128 215.55 128 224C128 232.45 123.65 239.85 117.05 244.15C114.2 246 112 248.9 112 252.3L112 288L400 288L400 252.3C400 248.9 397.8 246 394.95 244.15C388.35 239.85 384 232.45 384 224C384 215.55 388.35 208.15 394.95 203.85C397.8 202 400 199.1 400 195.7L400 192C400 174.35 385.65 160 368 160L144 160ZM400 304L112 304L112 336C112 344.85 119.15 352 128 352L152 352L152 336C152 331.6 155.6 328 160 328C164.4 328 168 331.6 168 336L168 352L216 352L216 336C216 331.6 219.6 328 224 328C228.4 328 232 331.6 232 336L232 352L280 352L280 336C280 331.6 283.6 328 288 328C292.4 328 296 331.6 296 336L296 352L344 352L344 336C344 331.6 347.6 328 352 328C356.4 328 360 331.6 360 336L360 352L384 352C392.85 352 400 344.85 400 336L400 304ZM208 208L208 240C208 248.85 200.85 256 192 256C183.15 256 176 248.85 176 240L176 208C176 199.15 183.15 192 192 192C200.85 192 208 199.15 208 208ZM272 208L272 240C272 248.85 264.85 256 256 256C247.15 256 240 248.85 240 240L240 208C240 199.15 247.15 192 256 192C264.85 192 272 199.15 272 208ZM336 208L336 240C336 248.85 328.85 256 320 256C311.15 256 304 248.85 304 240L304 208C304 199.15 311.15 192 320 192C328.85 192 336 199.15 336 208Z" fill="#000000" fill-rule="nonzero" opacity="1" stroke="none"/>
</g>
</svg>
