<?xml version="1.0" encoding="UTF-8" standalone="no"?>
<!DOCTYPE svg PUBLIC "-//W3C//DTD SVG 1.1//EN" "http://www.w3.org/Graphics/SVG/1.1/DTD/svg11.dtd">
<!-- Created with Vectornator (http://vectornator.io/) -->
<svg height="100%" stroke-miterlimit="10" style="fill-rule:nonzero;clip-rule:evenodd;stroke-linecap:round;stroke-linejoin:round;" version="1.1" viewBox="0 0 512 512" width="100%" xml:space="preserve" xmlns="http://www.w3.org/2000/svg" xmlns:xlink="http://www.w3.org/1999/xlink">
<defs/>
<g id="Ebene-1">
<path d="M134.845 64L377.155 64C416.281 64 448 94.6896 448 132.547L448 379.453C448 417.31 416.281 448 377.155 448L134.845 448C95.7186 448 64 417.31 64 379.453L64 132.547C64 94.6896 95.7186 64 134.845 64Z" fill="#008153" fill-rule="nonzero" opacity="1" stroke="none"/>
<path d="M123.102 229.45C157.608 196.35 204.416 176 256.025 176C307.634 176 354.442 196.35 388.948 229.45C395.349 235.55 405.451 235.35 411.552 229C417.653 222.65 417.453 212.5 411.102 206.4C370.895 167.75 316.236 144 256.025 144C195.814 144 141.155 167.75 100.898 206.35C94.5467 212.5 94.3466 222.6 100.448 229C106.549 235.4 116.701 235.6 123.052 229.45L123.102 229.45ZM256.025 256C284.43 256 310.335 266.55 330.138 284C336.789 289.85 346.891 289.2 352.742 282.6C358.593 276 357.943 265.85 351.342 260C325.937 237.6 292.531 224 256.025 224C219.519 224 186.113 237.6 160.758 260C154.107 265.85 153.507 275.95 159.358 282.6C165.209 289.25 175.311 289.85 181.962 284C201.715 266.55 227.62 256 256.075 256L256.025 256ZM288.031 336C288.031 318.35 273.678 304 256.025 304C238.372 304 224.019 318.35 224.019 336C224.019 353.65 238.372 368 256.025 368C273.678 368 288.031 353.65 288.031 336Z" fill="#000000" fill-rule="nonzero" opacity="1" stroke="none"/>
</g>
</svg>
