<?xml version="1.0" encoding="UTF-8" standalone="no"?>
<!DOCTYPE svg PUBLIC "-//W3C//DTD SVG 1.1//EN" "http://www.w3.org/Graphics/SVG/1.1/DTD/svg11.dtd">
<!-- Created with Vectornator (http://vectornator.io/) -->
<svg height="100%" stroke-miterlimit="10" style="fill-rule:nonzero;clip-rule:evenodd;stroke-linecap:round;stroke-linejoin:round;" version="1.1" viewBox="0 0 512 512" width="100%" xml:space="preserve" xmlns="http://www.w3.org/2000/svg" xmlns:vectornator="http://vectornator.io" xmlns:xlink="http://www.w3.org/1999/xlink">
<defs/>
<g id="Ebene-1" vectornator:layerName="Ebene 1">
<path d="M40 0L472 0C494.091 0 512 17.9086 512 40L512 472C512 494.091 494.091 512 472 512L40 512C17.9086 512 0 494.091 0 472L0 40C0 17.9086 17.9086 0 40 0Z" fill="#ea5e5e" fill-rule="evenodd" opacity="1" stroke="none"/>
<path d="M328 136.004L328 138.674C328 150.479 318.475 160.005 306.7 160.005L205.3 160.005C193.525 160.005 183.325 150.479 183.325 138.674L183.325 136.004C183.325 96.2366 215.575 64 255.325 64C295.75 64 328 96.2366 328 136.004ZM95.0275 143.054C104.402 133.663 119.597 133.663 128.972 143.054L176.95 191.056C177.475 191.506 177.925 192.031 178.375 192.556C189.1 187.081 201.175 184.006 213.325 184.006L298 184.006C310.825 184.006 322.9 187.081 333.625 192.556C334.075 192.031 334.525 191.506 335.05 191.056L383.05 143.054C392.425 133.663 407.575 133.663 416.95 143.054C426.325 152.429 426.325 167.58 416.95 176.956L368.95 224.958C367.825 225.483 367.975 225.933 367.45 226.383C372.025 235.383 374.95 245.434 375.775 256.009L424 256.009C437.275 256.009 448 266.735 448 280.011C448 293.286 437.275 304.012 424 304.012L376 304.012C376 322.463 371.875 339.863 364.45 355.464C366.025 356.439 367.6 357.639 368.95 359.064L416.95 407.067C426.325 416.442 426.325 431.593 416.95 440.968C407.575 450.344 392.425 450.344 383.05 440.968L335.725 393.716C317.35 410.067 293.875 420.867 268 423.418L268 244.009C268 237.408 262.6 232.008 255.325 232.008C249.4 232.008 243.325 237.408 243.325 244.009L243.325 423.418C218.125 420.867 194.65 410.067 176.275 393.716L128.972 440.968C119.597 450.344 104.402 450.344 95.0275 440.968C85.66 431.593 85.66 416.442 95.0275 407.067L143.05 359.064C144.4 357.639 145.975 356.439 147.55 355.464C140.125 339.863 136 322.463 136 304.012L88 304.012C74.7475 304.012 64 293.286 64 280.011C64 266.735 74.7475 256.009 88 256.009L136.225 256.009C137.035 245.434 139.975 235.383 144.55 226.383C144.025 225.933 143.5 225.483 143.05 224.958L95.0275 176.956C85.66 167.58 85.66 152.429 95.0275 143.054L95.0275 143.054Z" fill="#ffffff" fill-rule="evenodd" opacity="1" stroke="none"/>
</g>
</svg>
