<?xml version="1.0" encoding="UTF-8" standalone="no"?>
<!DOCTYPE svg PUBLIC "-//W3C//DTD SVG 1.1//EN" "http://www.w3.org/Graphics/SVG/1.1/DTD/svg11.dtd">
<!-- Created with Vectornator (http://vectornator.io/) -->
<svg height="100%" stroke-miterlimit="10" style="fill-rule:nonzero;clip-rule:evenodd;stroke-linecap:round;stroke-linejoin:round;" version="1.1" viewBox="0 0 512 512" width="100%" xml:space="preserve" xmlns="http://www.w3.org/2000/svg" xmlns:vectornator="http://vectornator.io" xmlns:xlink="http://www.w3.org/1999/xlink">
<defs/>
<g id="Ebene-1" vectornator:layerName="Ebene 1">
<path d="M40 0L472 0C494.091 0 512 17.9086 512 40L512 472C512 494.091 494.091 512 472 512L40 512C17.9086 512 0 494.091 0 472L0 40C0 17.9086 17.9086 0 40 0Z" fill="#797ef6" fill-rule="evenodd" opacity="1" stroke="none"/>
<path d="M471.868 255.625C471.868 269.125 460.617 279.7 447.867 279.7L423.866 279.7L424.391 399.775C424.391 401.875 424.241 403.825 424.016 405.85L424.016 418C424.016 434.575 410.59 448 394.015 448L382.014 448C381.189 448 380.364 447.325 379.539 447.925C378.489 447.325 377.439 448 376.389 448L334.012 448C317.437 448 304.011 434.575 304.011 418L304.011 352C304.011 338.725 293.286 328 280.01 328L232.008 328C218.732 328 208.007 338.725 208.007 352L208.007 418C208.007 434.575 194.581 448 178.006 448L136.079 448C134.954 448 133.829 447.925 132.704 447.85C131.804 447.925 130.904 448 130.004 448L118.003 448C101.435 448 88.002 434.575 88.002 418L88.002 334C88.002 333.325 88.0245 332.575 88.0695 331.9L88.0695 279.7L64.0385 279.7C50.5154 279.7 40 269.125 40 255.625C40 248.875 42.2531 242.875 47.5078 237.625L239.808 70.012C245.059 64.7515 251.059 64 256.309 64C261.559 64 267.559 65.503 272.135 69.2605L463.618 237.625C469.618 242.875 472.693 248.875 471.868 255.625L471.868 255.625Z" fill="#ffffff" fill-rule="evenodd" opacity="1" stroke="none"/>
</g>
</svg>
