<?xml version="1.0" encoding="UTF-8" standalone="no"?>
<!DOCTYPE svg PUBLIC "-//W3C//DTD SVG 1.1//EN" "http://www.w3.org/Graphics/SVG/1.1/DTD/svg11.dtd">
<!-- Created with Vectornator (http://vectornator.io/) -->
<svg height="100%" stroke-miterlimit="10" style="fill-rule:nonzero;clip-rule:evenodd;stroke-linecap:round;stroke-linejoin:round;" version="1.1" viewBox="0 0 512 512" width="100%" xml:space="preserve" xmlns="http://www.w3.org/2000/svg" xmlns:vectornator="http://vectornator.io" xmlns:xlink="http://www.w3.org/1999/xlink">
<defs/>
<g id="Ebene-1" vectornator:layerName="Ebene 1">
<path d="M40 0L472 0C494.091 0 512 17.9086 512 40L512 472C512 494.091 494.091 512 472 512L40 512C17.9086 512 0 494.091 0 472L0 40C0 17.9086 17.9086 0 40 0Z" fill="#1e2f97" fill-rule="evenodd" opacity="1" stroke="none"/>
<path d="M403.268 105.632L406.368 108.732C419.211 121.574 419.211 142.396 406.368 155.238L155.238 406.368C142.396 419.211 121.574 419.211 108.732 406.368L105.632 403.268C92.7895 390.426 92.7895 369.604 105.632 356.762L356.762 105.632C369.604 92.7895 390.426 92.7895 403.268 105.632Z" fill="#f9f9f9" fill-rule="evenodd" opacity="1" stroke="none"/>
<path d="M384 96L384 96C401.673 96 416 107.851 416 122.471L416 261.529C416 276.149 401.673 288 384 288L384 288C366.327 288 352 276.149 352 261.529L352 122.471C352 107.851 366.327 96 384 96Z" fill="#f9f9f9" fill-rule="evenodd" opacity="1" stroke="none"/>
<path d="M254 96L386 96C402.569 96 416 109.431 416 126L416 130C416 146.569 402.569 160 386 160L254 160C237.431 160 224 146.569 224 130L224 126C224 109.431 237.431 96 254 96Z" fill="#f9f9f9" fill-rule="evenodd" opacity="1" stroke="none"/>
</g>
</svg>
