<?xml version="1.0" encoding="UTF-8" standalone="no"?>
<!DOCTYPE svg PUBLIC "-//W3C//DTD SVG 1.1//EN" "http://www.w3.org/Graphics/SVG/1.1/DTD/svg11.dtd">
<!-- Created with Vectornator (http://vectornator.io/) -->
<svg height="100%" stroke-miterlimit="10" style="fill-rule:nonzero;clip-rule:evenodd;stroke-linecap:round;stroke-linejoin:round;" version="1.1" viewBox="0 0 512 512" width="100%" xml:space="preserve" xmlns="http://www.w3.org/2000/svg" xmlns:vectornator="http://vectornator.io" xmlns:xlink="http://www.w3.org/1999/xlink">
<defs/>
<g id="Ebene-1" vectornator:layerName="Ebene 1">
<path d="M40 0L472 0C494.091 0 512 17.9086 512 40L512 472C512 494.091 494.091 512 472 512L40 512C17.9086 512 0 494.091 0 472L0 40C0 17.9086 17.9086 0 40 0Z" fill="#4adede" fill-rule="evenodd" opacity="1" stroke="none"/>
<path d="M284 70.1062C284 113.76 336.762 135.6 367.65 104.756L374.825 97.6075C385.762 86.67 403.438 86.67 414.375 97.6075C425.312 108.545 425.312 126.237 414.375 137.175L407.287 144.35C376.4 175.237 398.275 228 441.938 228L452 228C467.488 228 480 240.513 480 256C480 271.488 467.488 284 452 284L441.938 284C398.275 284 376.4 336.762 407.287 367.65L414.375 374.825C425.312 385.762 425.312 403.438 414.375 414.375C403.438 425.312 385.762 425.312 374.825 414.375L367.65 407.287C336.762 376.4 284 398.275 284 441.938L284 452C284 467.488 271.488 480 256 480C240.513 480 228 467.488 228 452L228 441.938C228 398.275 175.237 376.4 144.35 407.287L137.175 414.375C126.237 425.312 108.545 425.312 97.6075 414.375C86.67 403.438 86.67 385.762 97.6075 374.825L104.756 367.65C135.6 336.762 113.76 284 70.1062 284L60 284C44.5387 284 32 271.488 32 256C32 240.513 44.5387 228 60 228L70.1062 228C113.76 228 135.6 175.237 104.756 144.35L97.6075 137.175C86.67 126.237 86.67 108.545 97.6075 97.6075C108.545 86.67 126.237 86.67 137.175 97.6075L144.35 104.756C175.237 135.6 228 113.76 228 70.1062L228 60C228 44.5387 240.513 32 256 32C271.488 32 284 44.5387 284 60L284 70.1062ZM228 186C204.812 186 186 204.812 186 228C186 251.188 204.812 270 228 270C251.188 270 270 251.188 270 228C270 204.812 251.188 186 228 186ZM298 319C309.637 319 319 309.637 319 298C319 286.363 309.637 277 298 277C286.363 277 277 286.363 277 298C277 309.637 286.363 319 298 319Z" fill="#ffffff" fill-rule="evenodd" opacity="1" stroke="none"/>
</g>
</svg>